<svg xmlns="http://www.w3.org/2000/svg" width="1440" height="560" preserveAspectRatio="none" viewBox="0 0 1440 560"><g mask="url(&quot;#a&quot;)" fill="none"><path fill="url(#b)" d="M0 0h1440v560H0z"/><path d="m-48.21 393.21-49.57 110.18m49.57-110.18 113.63-41.8m-113.63 41.8 130.76 160.5m-130.76-160.5-54.99 256.93m5.42-146.75-5.42 146.75m5.42-146.75 180.33 50.32m-180.33-50.32 163.2-151.98m-163.2 151.98L66.38 672.86M-97.78 503.39l320.64 48.33m-326.06 98.42 169.58 22.72m-169.58-22.72 185.75-96.43m-185.75 96.43 326.06-98.42M65.42 351.41l154.21 5.74m-154.21-5.74 17.13 202.3m0 0L66.38 672.86m16.17-119.15 140.31-1.99m-3.23-194.57 118.66 38.66m-118.66-38.66 3.23 194.57m0 0 34.68 98.42m0 0 82.19 26.09m-82.19-26.09 111.22-155.62M257.54 650.14 66.38 672.86m191.16-22.72L82.55 553.71m255.74-157.9 30.47 98.71m0 0 153.1 26.41m-153.1-26.41-145.9 57.2m116.87 124.51L222.86 551.72m116.87 124.51 29.03-181.71m-29.03 181.71 203.56-23.5m-203.56 23.5 182.13-155.3m31.26-177.29 113.81 24.16m-113.81-24.16-31.26 177.29m31.26-177.29 147.8-138.47m-147.8 138.47-214.83 52.17m183.57 125.12 21.43 131.8m-21.43-131.8 151.72 139.05M521.86 520.93 666.93 367.8M543.29 652.73l130.29 7.25m27.34-454.81 153.71 24.28m-153.71-24.28L666.93 367.8m0 0 171.39 41.08m-164.74 251.1 138.74 21.25m-138.74-21.25 117.86-113.02m63.19-317.51 124.77 26.13m-124.77-26.13L954.92 107.8M854.63 229.45l98.55 144.21m-114.86 35.22 114.86-35.22m-114.86 35.22-46.88 138.08m46.88-138.08 16.31-179.43m-16.31 179.43 141.08-153.3m-141.08 153.3-137.4-203.71m90.52 341.79 20.88 134.27m-20.88-134.27 164.45 102.81m-143.57 31.46 143.57-31.46m-143.57 31.46-269.03-28.5m269.03 28.5 26-272.35m-26 272.35-290.46-160.3M998.89-39.75 954.92 107.8m43.97-147.55L979.4 255.58m19.49-295.33 278.23 112.36M998.89-39.75l-144.26 269.2m144.26-269.2 309.29-26.56M998.89-39.75 700.92 205.17m254-97.37 24.48 147.78m0 0-26.22 118.08m2.71 276.11 190.89 38.7m-190.89-38.7 195.25-112.84M955.89 649.77 838.32 408.88m117.57 240.89-2.71-276.11m202.96 30.12 96.24-48.71m-101.24 181.86 5-133.15m-5 133.15 144.71 14.97m-144.71-14.97-4.36 151.54m4.36-151.54 115.55 172.04m-115.55-172.04 101.24-181.86m-105.6 333.4 119.91 20.5m41.49-775.28 126.93 24.23m-126.93-24.23-31.06 138.92m31.06-138.92 139.6 137.43m-139.6-137.43-5.92 273.8m5.92-273.8 104.22 254.8M1277.12 72.61l25.14 134.88m-25.14-134.88 170.66-1.49m-170.66 1.49 135.28 115.88M1277.12 72.61l157.99-114.69M1277.12 72.61l-24.74 282.46m49.88-147.58 110.14-19m-110.14 19-49.88 147.58m49.88-147.58 145.52-136.37m-145.52 136.37-146.12 196.29m146.12-196.29 246.53 33.47M1295.85 551.9l148.86-57.7m-148.86 57.7-29.16 157.07m0 0 162.7-22.3m-162.7 22.3 178.02-214.77m-9.6-536.28 12.67 113.2m-12.67-113.2 169.24-51.75m-169.24 51.75L1586.9 74.48M1435.11-42.08l-22.71 230.57m35.38-117.37-35.38 117.37m35.38-117.37 139.12 3.36M1444.71 494.2l112.23-1.66m-112.23 1.66 141.98-103.9m-141.98 103.9-15.32 192.47m15.32-192.47-192.33-139.13m177.01 331.6L1295.85 551.9m133.54 134.77 127.55-194.13m47.41-586.37L1586.9 74.48m17.45-168.31L1447.78 71.12m156.57-164.95-296.17 27.52M1586.9 74.48l-38.11 166.48m38.11-166.48-174.5 114.01m174.5-114.01-309.78-1.87m271.67 168.35-136.39-52.47m136.39 52.47 37.9 149.34m-37.9-149.34L1447.78 71.12m138.91 319.18-29.75 102.24m29.75-102.24L1412.4 188.49m174.29 201.81.21-315.82m-.21 315.82-290.84 161.6m261.09-59.36-8.15-251.58m8.15 251.58-261.09 59.36" stroke="#132e65" stroke-width="1.5"/><circle r="5" cx="-48.21" cy="393.21" fill="#132e65"/><circle r="5" cx="-97.78" cy="503.39" fill="#132e65"/><circle r="5" cx="-103.2" cy="650.14" fill="#132e65"/><circle r="5" cx="65.42" cy="351.41" fill="#132e65"/><circle r="5" cx="82.55" cy="553.71" fill="#132e65"/><circle r="5" cx="66.38" cy="672.86" fill="#132e65"/><circle r="5" cx="219.63" cy="357.15" fill="#132e65"/><circle r="5" cx="222.86" cy="551.72" fill="#132e65"/><circle r="5" cx="257.54" cy="650.14" fill="#132e65"/><circle r="5" cx="338.29" cy="395.81" fill="#132e65"/><circle r="5" cx="368.76" cy="494.52" fill="#132e65"/><circle r="5" cx="339.73" cy="676.23" fill="#132e65"/><circle r="5" cx="553.12" cy="343.64" fill="#132e65"/><circle r="5" cx="521.86" cy="520.93" fill="#132e65"/><circle r="5" cx="543.29" cy="652.73" fill="#132e65"/><circle r="5" cx="700.92" cy="205.17" fill="#132e65"/><circle r="5" cx="666.93" cy="367.8" fill="#132e65"/><circle r="5" cx="673.58" cy="659.98" fill="#132e65"/><circle r="5" cx="854.63" cy="229.45" fill="#132e65"/><circle r="5" cx="838.32" cy="408.88" fill="#132e65"/><circle r="5" cx="791.44" cy="546.96" fill="#132e65"/><circle r="5" cx="812.32" cy="681.23" fill="#132e65"/><circle r="5" cx="998.89" cy="-39.75" fill="#132e65"/><circle r="5" cx="954.92" cy="107.8" fill="#132e65"/><circle r="5" cx="979.4" cy="255.58" fill="#132e65"/><circle r="5" cx="953.18" cy="373.66" fill="#132e65"/><circle r="5" cx="955.89" cy="649.77" fill="#132e65"/><circle r="5" cx="1156.14" cy="403.78" fill="#132e65"/><circle r="5" cx="1151.14" cy="536.93" fill="#132e65"/><circle r="5" cx="1146.78" cy="688.47" fill="#132e65"/><circle r="5" cx="1308.18" cy="-66.31" fill="#132e65"/><circle r="5" cx="1277.12" cy="72.61" fill="#132e65"/><circle r="5" cx="1302.26" cy="207.49" fill="#132e65"/><circle r="5" cx="1252.38" cy="355.07" fill="#132e65"/><circle r="5" cx="1295.85" cy="551.9" fill="#132e65"/><circle r="5" cx="1266.69" cy="708.97" fill="#132e65"/><circle r="5" cx="1435.11" cy="-42.08" fill="#132e65"/><circle r="5" cx="1447.78" cy="71.12" fill="#132e65"/><circle r="5" cx="1412.4" cy="188.49" fill="#132e65"/><circle r="5" cx="1444.71" cy="494.2" fill="#132e65"/><circle r="5" cx="1429.39" cy="686.67" fill="#132e65"/><circle r="5" cx="1604.35" cy="-93.83" fill="#132e65"/><circle r="5" cx="1586.9" cy="74.48" fill="#132e65"/><circle r="5" cx="1548.79" cy="240.96" fill="#132e65"/><circle r="5" cx="1586.69" cy="390.3" fill="#132e65"/><circle r="5" cx="1556.94" cy="492.54" fill="#132e65"/><path d="m-46.54 510.76 125.05 8.68m-125.05-8.68-4.02 146.31m4.02-146.31 93.53 132.2m-93.53-132.2 268.83 16.43m-268.83-16.43 259.6 184.37m-259.6-184.37 439.41-7.18M46.99 642.96l-97.55 14.11m97.55-14.11 31.52-123.52M46.99 642.96l166.07 52.17m919.71-157.81L1154 405.34m-21.23 131.98 19.58 140.04m-19.58-140.04 155.77-31.16m-155.77 31.16-168.92-28.44m168.92 28.44L991.78 412m160.57 265.36-177.33-24.02m177.33 24.02 136.19-171.2m-136.19 171.2-188.5-168.48m188.5 168.48 258.26-30.73m-258.26 30.73 1.65-272.02m256.61 241.29 49.37-94.95m-49.37 94.95 172.28-.12m-172.28.12-122.07-140.47m122.07 140.47 160.14-121.7M78.51 519.44l143.78 7.75m0 0-9.23 167.94m9.23-167.94 170.58-23.61m-170.58 23.61 148.43 143.84M222.29 527.19 46.99 642.96m166.07 52.17 157.66-24.1m22.15-167.45 161.41 48.87m-161.41-48.87-22.15 167.45m22.15-167.45 107.81 162.13M392.87 503.58 213.06 695.13m157.66-24.1 129.96-5.32m53.6-113.26-53.6 113.26m53.6-113.26 98.08 89.02m-98.08-89.02 154.67-59.82m-154.67 59.82L370.72 671.03m333.46-280.8 4.77 102.4m-4.77-102.4 146.1-27.45m0 0L991.78 412m-141.5-49.22 110.77-103.51M850.28 362.78l113.57 146.1m-113.57-146.1L708.95 492.63M811.8 641.04l-159.44.43m159.44-.43 163.22 12.3m-13.97-394.07L991.78 412m-30.73-152.73 195.64-66.26m-195.64 66.26L1154 405.34M991.78 412l-27.93 96.88m0 0 11.17 144.46m0 0 157.75-116.02M975.02 653.34 991.78 412m-16.76 241.34 178.98-248m2.69-212.33 122.19 5.09m-122.19-5.09 112.91-90.26m-112.91 90.26L1154 405.34m2.69-212.33 234.14 42.02M1154 405.34l154.59-13.72M1154 405.34 991.78 412m162.22-6.66 134.54 100.82M1238.29-53.1l31.31 155.85M1238.29-53.1l197.13 10.05M1238.29-53.1l40.59 251.2m-9.28-95.35 9.28 95.35m-9.28-95.35 121.23 132.28M1269.6 102.75l165.82-145.8m-165.82 145.8 38.99 288.87m-29.71-193.52 111.95 36.93m-82.24 156.59-20.05 114.54m20.05-114.54 150.19-26.4m-150.19 26.4 82.24-156.59m-102.29 271.13 171.44 45.52m-24.56-594.73 102.29-23.72m-102.29 23.72 170.33 82.91m-214.92 195.17 67.95 130.19m0 0 104.44 4.12m-103.24 182.34 110.77-26.75m-110.77 26.75 122.91 94.83m-45.18-713.28 68.04 106.63m-68.04-106.63 69.7 277.08m-1.66-170.45 1.66 170.45m-1.66-170.45-214.92 195.17m216.58-24.72-44.19 159.03m44.19-159.03-148.63 154.91m148.63-154.91-216.58 24.72m172.39 134.31 7.53 155.59m-7.53-155.59-103.24 182.34m103.24-182.34-172.39-134.31m172.39 134.31-254.63 22.28m262.16 133.31 12.14 121.58m0 0-19.67-277.17m19.67 277.17-124.11-281.29" stroke="hsl(228.5, 77.2%, 51.5%)" stroke-width="1.5"/><circle r="25" cx="-46.54" cy="510.76" fill="url(#c)"/><circle r="25" cx="46.99" cy="642.96" fill="url(#c)"/><circle r="25" cx="1132.77" cy="537.32" fill="url(#c)"/><circle r="25" cx="1152.35" cy="677.36" fill="url(#c)"/><circle r="25" cx="1410.61" cy="646.63" fill="url(#c)"/><circle r="5" cx="-50.56" cy="657.07" fill="#8b9ad9"/><circle r="5" cx="78.51" cy="519.44" fill="#8b9ad9"/><circle r="5" cx="222.29" cy="527.19" fill="#8b9ad9"/><circle r="5" cx="213.06" cy="695.13" fill="#8b9ad9"/><circle r="5" cx="392.87" cy="503.58" fill="#8b9ad9"/><circle r="5" cx="370.72" cy="671.03" fill="#8b9ad9"/><circle r="5" cx="554.28" cy="552.45" fill="#8b9ad9"/><circle r="5" cx="500.68" cy="665.71" fill="#8b9ad9"/><circle r="5" cx="704.18" cy="390.23" fill="#8b9ad9"/><circle r="5" cx="708.95" cy="492.63" fill="#8b9ad9"/><circle r="5" cx="652.36" cy="641.47" fill="#8b9ad9"/><circle r="5" cx="850.28" cy="362.78" fill="#8b9ad9"/><circle r="5" cx="811.8" cy="641.04" fill="#8b9ad9"/><circle r="5" cx="961.05" cy="259.27" fill="#8b9ad9"/><circle r="5" cx="991.78" cy="412" fill="#8b9ad9"/><circle r="5" cx="963.85" cy="508.88" fill="#8b9ad9"/><circle r="5" cx="975.02" cy="653.34" fill="#8b9ad9"/><circle r="5" cx="1156.69" cy="193.01" fill="#8b9ad9"/><circle r="5" cx="1154" cy="405.34" fill="#8b9ad9"/><circle r="5" cx="1238.29" cy="-53.1" fill="#8b9ad9"/><circle r="5" cx="1269.6" cy="102.75" fill="#8b9ad9"/><circle r="5" cx="1278.88" cy="198.1" fill="#8b9ad9"/><circle r="5" cx="1308.59" cy="391.62" fill="#8b9ad9"/><circle r="5" cx="1288.54" cy="506.16" fill="#8b9ad9"/><circle r="5" cx="1435.42" cy="-43.05" fill="#8b9ad9"/><circle r="5" cx="1390.83" cy="235.03" fill="#8b9ad9"/><circle r="5" cx="1458.78" cy="365.22" fill="#8b9ad9"/><circle r="5" cx="1459.98" cy="551.68" fill="#8b9ad9"/><circle r="5" cx="1537.71" cy="-66.77" fill="#8b9ad9"/><circle r="5" cx="1605.75" cy="39.86" fill="#8b9ad9"/><circle r="5" cx="1607.41" cy="210.31" fill="#8b9ad9"/><circle r="5" cx="1563.22" cy="369.34" fill="#8b9ad9"/><circle r="5" cx="1570.75" cy="524.93" fill="#8b9ad9"/><circle r="5" cx="1582.89" cy="646.51" fill="#8b9ad9"/></g><defs><radialGradient id="c"><stop stop-color="#fff" offset=".1"/><stop stop-color="#1735b3" offset=".2"/><stop stop-color="rgba(23, 53, 179, 0)" offset="1"/></radialGradient><linearGradient x1="100%" y1="50%" x2="0%" y2="50%" gradientUnits="userSpaceOnUse" id="b"><stop stop-color="#0e2a47" offset="0"/><stop stop-color="rgba(0, 0, 0, 1)" offset="1"/></linearGradient><mask id="a"><path fill="#fff" d="M0 0h1440v560H0z"/></mask></defs></svg>