<svg width="620" height="620" viewBox="0 0 465 465" xmlns="http://www.w3.org/2000/svg"><path d="M567.342 433.604h-8.05c-3.787 0-6.71-1.006-8.77-3.018-2.061-2.013-3.091-4.912-3.091-8.698V399.1c0-3.785 1.03-6.685 3.09-8.698 2.06-2.012 4.984-3.019 8.77-3.019h8.051c3.785 0 6.709 1.007 8.77 3.02 2.06 2.012 3.09 4.912 3.09 8.697v22.787c0 3.786-1.03 6.685-3.09 8.698-2.061 2.012-4.985 3.018-8.77 3.018zm-6.613-7.907h5.104c1.533 0 2.623-.323 3.27-.97.647-.647.97-1.736.97-3.27v-21.924c0-1.533-.323-2.624-.97-3.271-.647-.647-1.737-.97-3.27-.97h-5.104c-1.534 0-2.612.323-3.235.97-.623.647-.934 1.738-.934 3.27v21.925c0 1.534.31 2.623.935 3.27.622.647 1.7.97 3.234.97zm57.791-38.313h10.64c1.006 0 1.509.504 1.509 1.51v43.201c0 1.007-.503 1.51-1.51 1.51h-5.894c-1.006 0-1.51-.503-1.51-1.51v-34.072h-.287l-7.332 24.08c-.288.96-.887 1.438-1.797 1.438h-6.038c-.911 0-1.51-.478-1.797-1.437l-7.476-24.153h-.287v34.144c0 .575-.097.97-.288 1.186-.192.216-.6.324-1.222.324h-5.894c-1.007 0-1.51-.503-1.51-1.51v-43.2c0-1.007.503-1.51 1.51-1.51h10.71c.67 0 1.126.335 1.366 1.006l7.62 25.374h.43l7.692-25.374c.144-.67.599-1.007 1.366-1.007zm29.113 46.22h-6.11c-1.007 0-1.51-.502-1.51-1.509v-43.2c0-1.007.503-1.51 1.51-1.51h17.108c3.736 0 6.66 1.03 8.77 3.09 2.107 2.061 3.162 4.96 3.162 8.698v5.607c0 5.416-2.133 9.01-6.399 10.782v.288l7.692 16.03c.431 1.15.025 1.725-1.22 1.725h-5.823c-.863 0-1.486-.096-1.87-.288-.384-.191-.695-.599-.935-1.222l-7.187-15.527h-4.816c-.575 0-.863.265-.863.792v14.735c0 1.007-.503 1.51-1.51 1.51zm2.3-24.368h7.044c1.533 0 2.66-.323 3.379-.97.718-.647 1.078-1.689 1.078-3.127v-5.606c0-1.485-.36-2.564-1.078-3.235-.719-.67-1.846-1.007-3.379-1.007h-7.044c-.528 0-.79.264-.79.791v12.364c0 .528.262.79.79.79zm48.593 24.368h-8.051c-3.786 0-6.71-1.006-8.77-3.018-2.061-2.013-3.091-4.912-3.091-8.698V399.1c0-3.785 1.03-6.685 3.09-8.698 2.061-2.012 4.985-3.019 8.77-3.019h8.052c3.784 0 6.708 1.007 8.77 3.02 2.059 2.012 3.09 4.912 3.09 8.697v22.787c0 3.786-1.031 6.685-3.09 8.698-2.062 2.012-4.986 3.018-8.77 3.018zm-6.613-7.907h5.103c1.533 0 2.623-.323 3.27-.97.647-.647.971-1.736.971-3.27v-21.924c0-1.533-.324-2.624-.97-3.271-.648-.647-1.738-.97-3.271-.97h-5.103c-1.535 0-2.613.323-3.236.97-.623.647-.935 1.738-.935 3.27v21.925c0 1.534.312 2.623.935 3.27.623.647 1.701.97 3.236.97zm34.574 7.907h-5.967c-1.006 0-1.51-.502-1.51-1.509v-43.2c0-1.007.504-1.51 1.51-1.51h5.392c1.005 0 1.676.335 2.012 1.006l14.52 27.243h.288v-26.74c0-1.006.503-1.51 1.51-1.51h5.965c1.006 0 1.51.504 1.51 1.51v43.201c0 1.007-.504 1.51-1.51 1.51h-5.247c-1.054 0-1.822-.479-2.3-1.438l-14.376-26.74h-.289v26.668c0 1.007-.503 1.51-1.508 1.51zm44.062-44.71v43.201c0 1.007-.504 1.51-1.51 1.51h-6.11c-1.006 0-1.51-.503-1.51-1.51v-43.2c0-1.007.504-1.51 1.51-1.51h6.11c1.006 0 1.51.503 1.51 1.51zm28.681 44.71h-7.836c-3.785 0-6.71-1.006-8.77-3.018-2.06-2.013-3.09-4.912-3.09-8.698V399.1c0-3.785 1.03-6.685 3.09-8.698 2.06-2.012 4.985-3.019 8.77-3.019h7.836c3.737 0 6.648 1.02 8.733 3.056 2.085 2.037 3.127 4.923 3.127 8.661v3.379c0 1.054-.529 1.581-1.581 1.581h-6.038c-1.007 0-1.51-.527-1.51-1.581v-2.947c0-1.533-.323-2.624-.97-3.271-.647-.647-1.738-.97-3.271-.97h-4.888c-1.486 0-2.552.323-3.199.97-.647.647-.97 1.738-.97 3.27v21.925c0 1.534.323 2.623.97 3.27.647.647 1.713.97 3.2.97h4.887c1.533 0 2.624-.323 3.27-.97.648-.647.97-1.736.97-3.27v-2.948c0-1.053.504-1.581 1.511-1.581h6.038c1.052 0 1.58.528 1.58 1.581v3.379c0 3.738-1.041 6.625-3.126 8.661-2.085 2.038-4.996 3.056-8.733 3.056zm18.544-11.788v-1.437c0-1.007.503-1.51 1.51-1.51h6.11c1.006 0 1.51.503 1.51 1.51v.574c0 1.822.359 3.068 1.078 3.738.718.672 2.036 1.006 3.953 1.006h3.379c1.869 0 3.173-.36 3.917-1.078.743-.719 1.114-2.06 1.114-4.025v-.863c0-1.389-.564-2.455-1.689-3.198-1.127-.743-2.528-1.186-4.205-1.33-1.679-.144-3.486-.42-5.427-.827a35.062 35.062 0 0 1-5.427-1.58c-1.678-.648-3.08-1.917-4.205-3.81-1.127-1.894-1.69-4.325-1.69-7.297v-2.516c0-3.738 1.054-6.637 3.163-8.697 2.109-2.06 5.031-3.092 8.77-3.092h7.188c3.785 0 6.732 1.032 8.841 3.092 2.108 2.06 3.163 4.96 3.163 8.697v1.366c0 1.007-.503 1.51-1.51 1.51h-6.109c-1.007 0-1.51-.503-1.51-1.51v-.431c0-1.869-.36-3.139-1.078-3.81-.719-.67-2.038-1.007-3.954-1.007h-2.803c-1.965 0-3.296.372-3.989 1.115-.695.743-1.043 2.192-1.043 4.348v1.366c0 2.253 1.965 3.547 5.895 3.882 4.072.336 7.691 1.15 10.854 2.444 1.677.719 3.078 2.002 4.205 3.846 1.125 1.845 1.689 4.205 1.689 7.08v2.444c0 3.738-1.054 6.638-3.163 8.698-2.109 2.06-5.032 3.09-8.769 3.09h-7.835c-3.738 0-6.662-1.03-8.77-3.09-2.109-2.06-3.162-4.96-3.162-8.698z" style="fill:#00234a;fill-rule:evenodd" transform="matrix(1.00009 0 0 1 -384.546 -205.771)"/><path d="M479.462 393.534c-22.125-2.287-41.925 13.802-44.213 35.928-2.288 22.133 13.802 41.925 35.928 44.213 22.134 2.288 41.925-13.794 44.213-35.928 2.288-22.125-13.794-41.925-35.928-44.213zm-13.489 73.737c-16.33-1.689-28.2-16.297-26.512-32.626 1.688-16.33 16.296-28.2 32.626-26.512 16.33 1.688 28.2 16.296 26.512 32.626-1.688 16.33-16.296 28.2-32.626 26.512z" style="fill:#009ee0;fill-rule:evenodd" transform="matrix(1.00009 0 0 1 -384.546 -205.771)"/><path d="M468.067 387.913a11.664 11.664 0 0 0-.524-.061c-28.1-2.905-53.334 17.592-56.24 45.7-2.905 28.1 17.6 53.334 45.701 56.24 18.49 1.91 35.73-6.304 46.19-20.153-9.197 7.502-21.258 11.488-34 10.17-25.41-2.627-43.876-25.36-41.249-50.768 2.253-21.79 19.293-38.478 40.122-41.128z" style="fill:#00234a;fill-rule:evenodd" transform="matrix(1.00009 0 0 1 -384.546 -205.771)"/><path d="M514.653 455.8c-7.825 24.18-31.766 40.509-58.042 37.792-30.199-3.121-52.231-30.234-49.109-60.433 3.122-30.199 30.235-52.23 60.434-49.109a54.668 54.668 0 0 1 18.092 5.098 45.797 45.797 0 0 1 17.742 9.288c-8.109-9.191-18.92-16.034-31.355-19.21l-.012-.002c-.013-.077-.02-.153-.038-.23l-2.291-10.037a3.318 3.318 0 0 0-2.894-2.563l-5.487-.567a3.318 3.318 0 0 0-3.357 1.916l-4.296 9.357c-.033.07-.056.144-.084.216h-.016c-1.767.071-3.52.228-5.25.457-.003 0-.007 0-.01.002-.035-.056-.066-.113-.104-.167l-5.949-8.403a3.319 3.319 0 0 0-3.653-1.264l-5.287 1.57a3.319 3.319 0 0 0-2.372 3.052l-.4 10.28a63.327 63.327 0 0 0-5.053 2.575l-.006.003-8.632-5.424a3.318 3.318 0 0 0-3.858.234l-4.28 3.479a3.319 3.319 0 0 0-1.02 3.729l3.41 9.201a61.692 61.692 0 0 0-4.09 4.738l-9.526-1.596a3.319 3.319 0 0 0-3.471 1.701l-2.612 4.858a3.319 3.319 0 0 0 .494 3.834l6.234 6.692a60.607 60.607 0 0 0-2.104 6.312l-8.74 1.995a3.318 3.318 0 0 0-2.563 2.894l-.567 5.486a3.318 3.318 0 0 0 1.916 3.357l7.677 3.526c.018 2.506.184 4.99.492 7.434l-6.707 4.749a3.318 3.318 0 0 0-1.264 3.653l1.57 5.287a3.318 3.318 0 0 0 3.052 2.372l7.751.301a62.304 62.304 0 0 0 3.706 7.387l-4.023 6.403a3.32 3.32 0 0 0 .235 3.858l3.478 4.28a3.318 3.318 0 0 0 3.729 1.02l6.764-2.507a61.608 61.608 0 0 0 6.746 5.75l-1.166 6.963a3.318 3.318 0 0 0 1.7 3.47l4.858 2.613a3.319 3.319 0 0 0 3.834-.494l5.022-4.678a62.58 62.58 0 0 0 8.458 2.635l1.52 6.653a3.318 3.318 0 0 0 2.893 2.562l5.487.568a3.318 3.318 0 0 0 3.357-1.916l2.848-6.203c31.039-.78 57.411-24.51 60.69-56.22a59.28 59.28 0 0 0 .288-4.204 45.88 45.88 0 0 1-4.79 13.628z" style="fill:#009ee0;fill-rule:evenodd" transform="matrix(1.00009 0 0 1 -384.546 -205.771)"/><path d="M553.034 480.072h-4.77c-.596 0-.794-.348-.596-1.043l7.85-29.86c.231-.696.728-1.043 1.49-1.043h6.608c.828 0 1.325.347 1.491 1.044l7.85 29.86c.199.694 0 1.042-.596 1.042h-4.77c-.365 0-.613-.074-.745-.224-.133-.15-.232-.421-.298-.819l-1.391-5.466h-9.688l-1.391 5.466c-.067.398-.174.67-.323.82-.15.149-.39.223-.72.223zm7.204-25.934-3.577 14.358h7.353l-3.577-14.358zm38.454-6.012h4.174c.727 0 1.092.332 1.092.994v22.853c0 2.584-.72 4.58-2.16 5.988-1.441 1.408-3.454 2.11-6.037 2.11h-5.465c-2.617 0-4.638-.694-6.062-2.086-1.424-1.39-2.136-3.394-2.136-6.012V449.17c0-.697.348-1.044 1.044-1.044h4.222c.696 0 1.044.347 1.044 1.044v22.505c0 1.061.223 1.814.67 2.261.448.447 1.185.671 2.211.671h3.429c1.06 0 1.813-.224 2.26-.67.447-.448.67-1.2.67-2.262V449.17c0-.697.348-1.044 1.044-1.044zm26.332 31.946h-4.173c-.73 0-1.093-.348-1.093-1.043v-24.891c0-.365-.183-.547-.547-.547h-5.664c-.695 0-1.043-.348-1.043-1.043v-3.378c0-.697.348-1.044 1.043-1.044h18.78c.696 0 1.044.347 1.044 1.044v3.378c0 .695-.348 1.043-1.043 1.043h-5.664c-.398 0-.596.182-.596.547v24.891c0 .695-.348 1.043-1.044 1.043zm30.356 0h-5.564c-2.617 0-4.638-.695-6.061-2.087-1.425-1.39-2.137-3.394-2.137-6.012v-15.749c0-2.616.712-4.62 2.137-6.011 1.423-1.391 3.444-2.087 6.06-2.087h5.565c2.616 0 4.637.696 6.06 2.087 1.425 1.39 2.137 3.395 2.137 6.011v15.75c0 2.617-.712 4.62-2.136 6.011-1.424 1.392-3.445 2.087-6.061 2.087zm-4.57-5.465h3.527c1.06 0 1.813-.224 2.26-.67.447-.448.671-1.2.671-2.262v-15.153c0-1.06-.224-1.813-.67-2.26-.448-.448-1.201-.671-2.26-.671h-3.529c-1.06 0-1.805.223-2.235.67-.431.448-.646 1.202-.646 2.261v15.153c0 1.061.215 1.814.645 2.261.43.447 1.176.671 2.236.671zm44.912-26.481h7.353c.696 0 1.043.347 1.043 1.044v29.86c0 .694-.347 1.042-1.044 1.042h-4.073c-.696 0-1.044-.348-1.044-1.043v-23.55h-.198l-5.068 16.644c-.199.663-.614.993-1.243.993h-4.172c-.63 0-1.043-.33-1.243-.993l-5.167-16.694h-.199v23.6c0 .398-.066.67-.198.82-.133.149-.415.223-.845.223h-4.074c-.695 0-1.043-.348-1.043-1.043v-29.86c0-.696.348-1.043 1.043-1.043h7.403c.463 0 .778.232.944.696l5.266 17.537h.298l5.316-17.537c.1-.464.415-.696.945-.696zm23.152 31.946h-4.77c-.596 0-.794-.348-.596-1.043l7.85-29.86c.231-.696.728-1.043 1.491-1.043h6.607c.827 0 1.325.347 1.49 1.044l7.85 29.86c.2.694 0 1.042-.596 1.042h-4.769c-.365 0-.613-.074-.745-.224-.133-.15-.233-.421-.298-.819l-1.392-5.466h-9.688l-1.39 5.466c-.067.398-.175.67-.324.82-.148.149-.39.223-.72.223zm7.204-25.934-3.578 14.358h7.354l-3.577-14.358zm31.995 25.934h-4.172c-.73 0-1.094-.348-1.094-1.043v-24.891c0-.365-.182-.547-.546-.547h-5.664c-.695 0-1.043-.348-1.043-1.043v-3.378c0-.697.348-1.044 1.043-1.044h18.78c.695 0 1.043.347 1.043 1.044v3.378c0 .695-.348 1.043-1.043 1.043h-5.664c-.398 0-.596.182-.596.547v24.891c0 .695-.348 1.043-1.044 1.043zm23.649-30.902v29.86c0 .694-.348 1.042-1.043 1.042h-4.223c-.696 0-1.044-.348-1.044-1.043v-29.86c0-.696.348-1.043 1.044-1.043h4.223c.695 0 1.043.347 1.043 1.044zm24.941 30.902h-5.564c-2.618 0-4.638-.695-6.062-2.087-1.425-1.39-2.136-3.394-2.136-6.012v-15.749c0-2.616.711-4.62 2.136-6.011 1.424-1.391 3.444-2.087 6.062-2.087h5.564c2.616 0 4.637.696 6.06 2.087 1.425 1.39 2.138 3.395 2.138 6.011v15.75c0 2.617-.713 4.62-2.137 6.011-1.424 1.392-3.445 2.087-6.061 2.087zm-4.571-5.465h3.527c1.06 0 1.814-.224 2.261-.67.447-.448.67-1.2.67-2.262v-15.153c0-1.06-.223-1.813-.67-2.26-.447-.448-1.201-.671-2.26-.671h-3.528c-1.06 0-1.806.223-2.235.67-.431.448-.647 1.202-.647 2.261v15.153c0 1.061.216 1.814.647 2.261.43.447 1.175.671 2.235.671zm28.865 5.465h-4.124c-.695 0-1.043-.348-1.043-1.043v-29.86c0-.696.348-1.043 1.043-1.043h3.727c.695 0 1.159.232 1.39.696l10.036 18.83h.2V449.17c0-.697.347-1.044 1.042-1.044h4.125c.695 0 1.043.347 1.043 1.044v29.86c0 .694-.348 1.042-1.043 1.042h-3.627c-.729 0-1.26-.331-1.59-.994l-9.937-18.481H832v18.432c0 .695-.348 1.043-1.043 1.043z" style="fill:#00234a;fill-rule:evenodd" transform="matrix(1.00009 0 0 1 -384.546 -205.771)"/></svg>